<svg xmlns="http://www.w3.org/2000/svg" viewBox="0 0 24 24" fill="none" fill-rule="evenodd">
  <rect width="24" height="24" rx="4" fill="#16A34A"/>
  <svg x="2" y="3.5" width="20" height="17" viewBox="0 0 724 582" preserveAspectRatio="xMidYMid meet">
    <path d="M205.594 197.898h322.661v108.263H205.594z" fill="#BBF7D0"/>
    <path d="M578.582 508.799h-72.323v72.686h72.323v-72.686zm-361.614 0h-72.323v72.686h72.323v-72.686zm361.614-290.742h72.323v145.371h-72.323v72.686h-74.229 1.906v72.685H216.968v-72.685h-72.323v-72.686H72.323V218.057h72.322v-73.163h72.323V72.686h72.323v72.685h144.645V72.686h72.323v72.685h72.323v72.686zM72.323 508.799V363.428H0v145.371h72.323zm650.904 0V363.428h-72.322v145.371h72.322zM289.423 290.742h-.132.132zm-72.455-72.685h72.323v72.685h-72.323v-72.685zm216.968 0h72.323v72.685h-72.323v-72.685zM578.582 0h-72.323v72.686h72.323V0zM216.968 0h-72.323v72.686h72.323V0z" fill="#BBF7D0"/>
    <path d="M144.645 363.428V218.057h72.323v-72.686h289.291v72.686h72.323v72.685l-.001.001v72.685h-72.322v72.686h-72.323V508.8H289.291v-72.686h-72.323v-72.686h-72.323zm144.646-72.686h-72.323v-72.685h72.323v72.685zm216.968 0h-72.323v-72.685h72.323v72.685z" fill="#FFFFFF"/>
    <rect x="216.968" y="218.057" width="72.323" height="72.685" fill="#16A34A"/>
    <rect x="433.936" y="218.057" width="72.323" height="72.685" fill="#16A34A"/>
  </svg>
</svg>
